<mxfile host="app.diagrams.net" agent="Mozilla/5.0 (Windows NT 10.0; Win64; x64) AppleWebKit/537.36 (KHTML, like Gecko) Chrome/130.0.0.0 Safari/537.36 Edg/130.0.0.0" version="24.8.0">
  <diagram name="Страница — 1" id="e_Q7dSje0Ds5MWDtg1Tx">
    <mxGraphModel dx="799" dy="525" grid="1" gridSize="10" guides="1" tooltips="1" connect="1" arrows="1" fold="1" page="1" pageScale="1" pageWidth="827" pageHeight="1169" math="0" shadow="0">
      <root>
        <mxCell id="0" />
        <mxCell id="1" parent="0" />
        <mxCell id="rB9vsVfAewknWLXbqwtC-3" value="Создать обращение" style="ellipse;whiteSpace=wrap;html=1;fillColor=#ffe6cc;strokeColor=#d79b00;" vertex="1" parent="1">
          <mxGeometry x="57.5" y="190" width="140" height="70" as="geometry" />
        </mxCell>
        <mxCell id="rB9vsVfAewknWLXbqwtC-4" value="Гражданин&lt;div&gt;&lt;br&gt;&lt;/div&gt;" style="shape=umlActor;verticalLabelPosition=bottom;verticalAlign=top;html=1;fillColor=#d5e8d4;strokeColor=#82b366;" vertex="1" parent="1">
          <mxGeometry x="90" y="20" width="75" height="110" as="geometry" />
        </mxCell>
        <mxCell id="rB9vsVfAewknWLXbqwtC-6" value="&lt;div&gt;Сотрудник ЖКХ&lt;/div&gt;&lt;div&gt;&lt;br&gt;&lt;/div&gt;" style="shape=umlActor;verticalLabelPosition=bottom;verticalAlign=top;html=1;fillColor=#d5e8d4;strokeColor=#82b366;" vertex="1" parent="1">
          <mxGeometry x="310" y="20" width="75" height="110" as="geometry" />
        </mxCell>
        <mxCell id="rB9vsVfAewknWLXbqwtC-7" value="&lt;div&gt;Администратор&lt;/div&gt;" style="shape=umlActor;verticalLabelPosition=bottom;verticalAlign=top;html=1;fillColor=#d5e8d4;strokeColor=#82b366;" vertex="1" parent="1">
          <mxGeometry x="510" y="20" width="75" height="110" as="geometry" />
        </mxCell>
        <mxCell id="rB9vsVfAewknWLXbqwtC-8" value="" style="endArrow=none;html=1;edgeStyle=orthogonalEdgeStyle;rounded=0;entryX=0.506;entryY=-0.04;entryDx=0;entryDy=0;entryPerimeter=0;" edge="1" parent="1" source="rB9vsVfAewknWLXbqwtC-4" target="rB9vsVfAewknWLXbqwtC-3">
          <mxGeometry relative="1" as="geometry">
            <mxPoint x="57.215714285714256" y="120" as="sourcePoint" />
            <mxPoint x="57" y="180" as="targetPoint" />
            <Array as="points" />
          </mxGeometry>
        </mxCell>
        <mxCell id="rB9vsVfAewknWLXbqwtC-11" value="Просмотреть статус обращения" style="ellipse;whiteSpace=wrap;html=1;fillColor=#ffe6cc;strokeColor=#d79b00;" vertex="1" parent="1">
          <mxGeometry x="57.5" y="310" width="140" height="70" as="geometry" />
        </mxCell>
        <mxCell id="rB9vsVfAewknWLXbqwtC-12" value="Обработать обращение" style="ellipse;whiteSpace=wrap;html=1;fillColor=#ffe6cc;strokeColor=#d79b00;" vertex="1" parent="1">
          <mxGeometry x="290" y="330" width="140" height="70" as="geometry" />
        </mxCell>
        <mxCell id="rB9vsVfAewknWLXbqwtC-13" value="Назначить обращение" style="ellipse;whiteSpace=wrap;html=1;fillColor=#ffe6cc;strokeColor=#d79b00;" vertex="1" parent="1">
          <mxGeometry x="290" y="440" width="140" height="70" as="geometry" />
        </mxCell>
        <mxCell id="rB9vsVfAewknWLXbqwtC-14" value="Изменить статус обращения&lt;span style=&quot;color: rgba(0, 0, 0, 0); font-family: monospace; font-size: 0px; text-align: start; text-wrap-mode: nowrap;&quot;&gt;%3CmxGraphModel%3E%3Croot%3E%3CmxCell%20id%3D%220%22%2F%3E%3CmxCell%20id%3D%221%22%20parent%3D%220%22%2F%3E%3CmxCell%20id%3D%222%22%20value%3D%22%D0%9E%D0%B1%D1%80%D0%B0%D0%B1%D0%BE%D1%82%D0%B0%D1%82%D1%8C%20%D0%BE%D0%B1%D1%80%D0%B0%D1%89%D0%B5%D0%BD%D0%B8%D0%B5%22%20style%3D%22ellipse%3BwhiteSpace%3Dwrap%3Bhtml%3D1%3B%22%20vertex%3D%221%22%20parent%3D%221%22%3E%3CmxGeometry%20x%3D%22167.5%22%20y%3D%22190%22%20width%3D%22140%22%20height%3D%2270%22%20as%3D%22geometry%22%2F%3E%3C%2FmxCell%3E%3C%2Froot%3E%3C%2FmxGraphModel%3E&lt;/span&gt;" style="ellipse;whiteSpace=wrap;html=1;fillColor=#ffe6cc;strokeColor=#d79b00;" vertex="1" parent="1">
          <mxGeometry x="290" y="570" width="140" height="70" as="geometry" />
        </mxCell>
        <mxCell id="rB9vsVfAewknWLXbqwtC-15" value="Закрыть обращение" style="ellipse;whiteSpace=wrap;html=1;fillColor=#ffe6cc;strokeColor=#d79b00;" vertex="1" parent="1">
          <mxGeometry x="290" y="690" width="140" height="70" as="geometry" />
        </mxCell>
        <mxCell id="rB9vsVfAewknWLXbqwtC-16" value="Следить за действиями пользователей" style="ellipse;whiteSpace=wrap;html=1;fillColor=#ffe6cc;strokeColor=#d79b00;" vertex="1" parent="1">
          <mxGeometry x="477.5" y="190" width="140" height="70" as="geometry" />
        </mxCell>
        <mxCell id="rB9vsVfAewknWLXbqwtC-18" value="" style="html=1;verticalAlign=bottom;labelBackgroundColor=none;endArrow=open;endFill=0;dashed=1;rounded=0;entryX=0.5;entryY=1;entryDx=0;entryDy=0;exitX=0.5;exitY=0;exitDx=0;exitDy=0;" edge="1" parent="1" source="rB9vsVfAewknWLXbqwtC-11" target="rB9vsVfAewknWLXbqwtC-3">
          <mxGeometry width="160" relative="1" as="geometry">
            <mxPoint x="-30" y="270" as="sourcePoint" />
            <mxPoint x="30" y="270" as="targetPoint" />
            <mxPoint as="offset" />
          </mxGeometry>
        </mxCell>
        <mxCell id="rB9vsVfAewknWLXbqwtC-23" value="" style="html=1;verticalAlign=bottom;labelBackgroundColor=none;endArrow=open;endFill=0;dashed=1;rounded=0;entryX=0.504;entryY=1.042;entryDx=0;entryDy=0;exitX=0.504;exitY=-0.033;exitDx=0;exitDy=0;exitPerimeter=0;entryPerimeter=0;" edge="1" parent="1" source="rB9vsVfAewknWLXbqwtC-13" target="rB9vsVfAewknWLXbqwtC-12">
          <mxGeometry width="160" relative="1" as="geometry">
            <mxPoint x="237.33" y="280" as="sourcePoint" />
            <mxPoint x="237.33" y="260" as="targetPoint" />
            <mxPoint as="offset" />
          </mxGeometry>
        </mxCell>
        <mxCell id="rB9vsVfAewknWLXbqwtC-24" value="" style="html=1;verticalAlign=bottom;labelBackgroundColor=none;endArrow=open;endFill=0;dashed=1;rounded=0;entryX=0.508;entryY=1.026;entryDx=0;entryDy=0;exitX=0.494;exitY=0.018;exitDx=0;exitDy=0;exitPerimeter=0;entryPerimeter=0;" edge="1" parent="1" source="rB9vsVfAewknWLXbqwtC-14" target="rB9vsVfAewknWLXbqwtC-13">
          <mxGeometry width="160" relative="1" as="geometry">
            <mxPoint x="240" y="370" as="sourcePoint" />
            <mxPoint x="237.21" y="350" as="targetPoint" />
            <mxPoint as="offset" />
          </mxGeometry>
        </mxCell>
        <mxCell id="rB9vsVfAewknWLXbqwtC-27" value="" style="html=1;verticalAlign=bottom;labelBackgroundColor=none;endArrow=open;endFill=0;dashed=1;rounded=0;entryX=0.51;entryY=1.038;entryDx=0;entryDy=0;exitX=0.523;exitY=0.01;exitDx=0;exitDy=0;exitPerimeter=0;entryPerimeter=0;" edge="1" parent="1" source="rB9vsVfAewknWLXbqwtC-15" target="rB9vsVfAewknWLXbqwtC-14">
          <mxGeometry width="160" relative="1" as="geometry">
            <mxPoint x="237.21" y="460" as="sourcePoint" />
            <mxPoint x="237.42000000000002" y="439" as="targetPoint" />
            <mxPoint as="offset" />
          </mxGeometry>
        </mxCell>
        <mxCell id="rB9vsVfAewknWLXbqwtC-30" value="" style="endArrow=block;endSize=16;endFill=0;html=1;rounded=0;fillColor=#f8cecc;strokeColor=#b85450;" edge="1" parent="1" source="rB9vsVfAewknWLXbqwtC-7" target="rB9vsVfAewknWLXbqwtC-6">
          <mxGeometry width="160" relative="1" as="geometry">
            <mxPoint x="425" y="80" as="sourcePoint" />
            <mxPoint x="385" y="80" as="targetPoint" />
          </mxGeometry>
        </mxCell>
        <mxCell id="rB9vsVfAewknWLXbqwtC-31" value="" style="endArrow=none;html=1;edgeStyle=orthogonalEdgeStyle;rounded=0;entryX=0.496;entryY=-0.023;entryDx=0;entryDy=0;entryPerimeter=0;" edge="1" parent="1" source="rB9vsVfAewknWLXbqwtC-6" target="rB9vsVfAewknWLXbqwtC-12">
          <mxGeometry relative="1" as="geometry">
            <mxPoint x="360" y="250.69" as="sourcePoint" />
            <mxPoint x="359.38" y="310" as="targetPoint" />
            <Array as="points">
              <mxPoint x="360" y="280" />
              <mxPoint x="359" y="280" />
            </Array>
          </mxGeometry>
        </mxCell>
        <mxCell id="rB9vsVfAewknWLXbqwtC-32" value="" style="endArrow=none;html=1;edgeStyle=orthogonalEdgeStyle;rounded=0;entryX=0.503;entryY=-0.029;entryDx=0;entryDy=0;entryPerimeter=0;" edge="1" parent="1" source="rB9vsVfAewknWLXbqwtC-7" target="rB9vsVfAewknWLXbqwtC-16">
          <mxGeometry relative="1" as="geometry">
            <mxPoint x="547.14" y="120" as="sourcePoint" />
            <mxPoint x="547" y="180" as="targetPoint" />
            <Array as="points" />
          </mxGeometry>
        </mxCell>
      </root>
    </mxGraphModel>
  </diagram>
</mxfile>
